<svg xmlns="http://www.w3.org/2000/svg" width="24" height="24" viewBox="0 0 24 24">
  <g id="gender" transform="translate(-6914 -3939)">
    <g id="Group_7785" data-name="Group 7785">
      <rect id="Rectangle_17567" data-name="Rectangle 17567" width="24" height="24" transform="translate(6914 3939)" fill="none"/>
      <path id="Path_14491" data-name="Path 14491" d="M2806.365,1316.35h-4a1,1,0,0,0,0,2h2.586l-2.4,2.4a10.351,10.351,0,1,0-12.186,12.52v2.08h-2a1,1,0,0,0,0,2h2v2a1,1,0,0,0,2,0v-2h2a1,1,0,0,0,0-2h-2v-2.073a75.063,75.063,0,0,1,12.048-3.383,6.987,6.987,0,0,0-.448-7.728l2.4-2.4v2.584a1,1,0,0,0,2,0v-4A2,2,0,0,0,2806.365,1316.35Zm-20,10a4.971,4.971,0,0,1,6.788-4.656,6.956,6.956,0,0,0,0,9.312,4.971,4.971,0,0,1-6.788-4.656Zm12,5a5,5,0,1,1,5-5A5,5,0,0,1,2798.365,1331.35Z" transform="translate(4129.635 2622.65)" fill="#fff"/>
    </g>
  </g>
</svg>
